<?xml version="1.0" standalone="no"?>
<!DOCTYPE svg PUBLIC "-//W3C//DTD SVG 20010904//EN"
 "http://www.w3.org/TR/2001/REC-SVG-20010904/DTD/svg10.dtd">
<svg version="1.0" xmlns="http://www.w3.org/2000/svg"
 width="378.000000pt" height="378.000000pt" viewBox="0 0 378.000000 378.000000"
 preserveAspectRatio="xMidYMid meet">
<metadata>
Created by potrace 1.11, written by Peter Selinger 2001-2013
</metadata>
<g transform="translate(0.000000,378.000000) scale(0.100000,-0.100000)"
fill="#000000" stroke="none">
<path d="M1232 3362 c-21 -3 -23 -9 -22 -45 4 -105 4 -107 -37 -107 l-38 0 1
-75 1 -75 -37 0 -38 0 0 -146 c1 -155 -2 -165 -47 -156 -21 4 -24 0 -27 -34
-2 -22 -9 -40 -15 -40 -7 -1 -25 -2 -39 -3 -23 -1 -25 -5 -22 -33 3 -32 1 -33
-34 -36 -31 -3 -38 -7 -39 -25 -3 -57 1 -53 -55 -56 -23 -1 -25 -4 -22 -38 3
-37 3 -37 -37 -38 l-40 0 0 -65 c0 -78 -6 -88 -45 -85 -29 2 -30 1 -30 -36 0
-38 -1 -39 -38 -39 l-38 0 1 -72 0 -73 -37 -3 c-35 -3 -37 -5 -40 -40 -3 -35
-5 -37 -38 -37 l-35 0 -1 -65 c-2 -92 -2 -92 -26 -90 -48 4 -48 5 -48 -110 0
-119 2 -115 -57 -110 -20 1 -21 -3 -21 -70 1 -75 -10 -95 -44 -84 -24 7 -34
-21 -32 -88 2 -60 -3 -66 -48 -63 -25 2 -26 0 -26 -54 1 -101 2 -98 -37 -96
-32 3 -35 0 -36 -24 -4 -144 0 -723 5 -728 11 -11 215 -9 219 2 2 6 3 56 2
113 0 63 3 103 10 103 5 1 39 2 75 3 l65 1 3 38 c3 35 5 37 38 37 25 0 34 4
35 18 4 61 -2 57 76 56 l73 -1 0 39 0 38 79 0 79 0 -3 30 c-1 16 3 33 9 38 6
5 57 8 114 7 l102 -1 0 38 0 38 113 0 113 0 1 28 c0 15 1 32 2 38 1 8 36 12
111 11 l110 -1 0 -113 0 -113 34 0 c35 0 44 -10 41 -47 -1 -12 3 -24 9 -26 10
-3 202 -2 216 2 3 0 5 97 5 214 -1 116 0 217 3 224 2 8 38 11 110 11 205 0
189 -3 187 36 -1 32 1 34 34 38 20 1 54 1 76 -2 38 -5 40 -7 40 -39 l0 -35 73
2 c51 1 72 -2 73 -11 1 -6 3 -68 4 -137 1 -69 3 -132 4 -140 2 -23 220 -23
222 0 1 8 2 42 3 75 1 63 0 61 54 64 l22 1 0 225 0 225 75 0 75 0 0 38 0 37
225 0 225 -1 0 38 0 38 189 0 190 0 3 37 c3 35 5 37 38 38 33 1 35 3 35 35 0
33 2 35 38 38 l37 3 0 189 0 189 -37 3 -38 3 0 67 c0 36 -3 69 -7 73 -3 4 -37
7 -75 8 -63 2 -68 4 -69 25 -1 12 -2 28 -3 36 -1 10 -12 14 -31 14 -38 -1 -43
4 -42 42 1 33 8 30 -103 34 l-50 1 3 38 4 37 -41 0 c-41 0 -41 0 -41 38 l0 37
-110 -1 c-118 -2 -111 -5 -114 51 -1 18 -8 20 -71 20 -38 0 -73 4 -76 8 -4 5
-5 22 -4 38 2 27 0 29 -34 30 -20 0 -88 1 -151 2 l-115 2 1 38 0 37 -79 0
c-75 0 -78 1 -77 23 5 51 3 52 -62 51 -83 0 -88 2 -88 42 l0 34 -113 0 -113 0
1 75 2 74 -76 3 -75 3 -1 35 -1 35 -64 1 c-36 1 -70 2 -76 3 -7 0 -11 16 -10
38 l1 36 -245 1 c-135 1 -255 0 -268 -2z"/>
</g>
</svg>
